<?xml version="1.0" encoding="UTF-8" standalone="no"?>
<!-- Created with Inkscape (http://www.inkscape.org/) -->
<svg xmlns:a="http://ns.adobe.com/AdobeSVGViewerExtensions/3.0/" xmlns:dc="http://purl.org/dc/elements/1.1/" xmlns:cc="http://web.resource.org/cc/" xmlns:rdf="http://www.w3.org/1999/02/22-rdf-syntax-ns#" xmlns:svg="http://www.w3.org/2000/svg" xmlns="http://www.w3.org/2000/svg" xmlns:xlink="http://www.w3.org/1999/xlink" xmlns:sodipodi="http://sodipodi.sourceforge.net/DTD/sodipodi-0.dtd" xmlns:inkscape="http://www.inkscape.org/namespaces/inkscape" version="1.0" width="48pt" height="48pt" viewBox="0 0 256 256" id="svg2" xml:space="preserve" sodipodi:version="0.32" inkscape:version="0.45.1" sodipodi:docname="Nuvola_Brazilian_flag.svg" sodipodi:docbase="/home/federico/Desktop/Flags" inkscape:output_extension="org.inkscape.output.svg.inkscape"><metadata id="metadata45"><rdf:RDF><cc:Work rdf:about=""><dc:format>image/svg+xml</dc:format><dc:type rdf:resource="http://purl.org/dc/dcmitype/StillImage"/></cc:Work></rdf:RDF></metadata><sodipodi:namedview inkscape:window-height="963" inkscape:window-width="1272" inkscape:pageshadow="2" inkscape:pageopacity="0.0" guidetolerance="10.0" gridtolerance="10.0" objecttolerance="10.0" borderopacity="1.0" bordercolor="#666666" pagecolor="#ffffff" id="base" inkscape:zoom="5.854782" inkscape:cx="27.938502" inkscape:cy="23.167978" inkscape:window-x="0" inkscape:window-y="25" inkscape:current-layer="svg2"/><defs id="defs271"><linearGradient x1="87.396973" y1="141.97266" x2="240.94727" y2="141.97266" id="XMLID_22_" gradientUnits="userSpaceOnUse" gradientTransform="matrix(1.567692,0,0,1.567692,-129.3706,-94.56783)">
								<stop style="stop-color:#ffffff;stop-opacity:0.66666675" offset="0" id="stop139"/>
								
								<stop style="stop-color:#d7d7d7;stop-opacity:0.21875" offset="0.24074516" id="stop143"/>
								<stop style="stop-color:#4d4d4d;stop-opacity:0" offset="0.4585622" id="stop145"/><stop style="stop-color:#ffffff;stop-opacity:0.51041669" offset="0.71891773" id="stop3696"/><stop style="stop-color:#f2f2f2;stop-opacity:0.40000001" offset="0.87351298" id="stop2807"/><stop style="stop-color:#ffffff;stop-opacity:0.62352943" offset="1" id="stop3694"/>
								
								
								<a:midPointStop style="stop-color:#E9E9EF" offset="0"/>
								<a:midPointStop style="stop-color:#E9E9EF" offset="0.5"/>
								<a:midPointStop style="stop-color:#B1B1C5" offset="0.157303"/>
								<a:midPointStop style="stop-color:#B1B1C5" offset="0.5"/>
								<a:midPointStop style="stop-color:#CECEDB" offset="0.314607"/>
								<a:midPointStop style="stop-color:#CECEDB" offset="0.5"/>
								<a:midPointStop style="stop-color:#FFFFFF" offset="0.65"/>
								<a:midPointStop style="stop-color:#FFFFFF" offset="0.5"/>
								<a:midPointStop style="stop-color:#CECEDB" offset="0.837079"/>
								<a:midPointStop style="stop-color:#CECEDB" offset="0.5"/>
								<a:midPointStop style="stop-color:#FFFF66" offset="1"/>
							</linearGradient><linearGradient x1="87.396973" y1="141.97266" x2="269.33331" y2="141.97276" id="linearGradient1945" xlink:href="#XMLID_22_" gradientUnits="userSpaceOnUse" gradientTransform="matrix(1.567692,0,0,1.567692,-129.3714,-94.56962)"/><linearGradient gradientTransform="matrix(1.567692,0,0,1.567692,-69.82581,15.22741)" gradientUnits="userSpaceOnUse" id="XMLID_17_" y2="112.30453" x2="126.18921" y1="39.617504" x1="126.18921">
								<stop id="stop18" offset="0" style="stop-color:#c200be;stop-opacity:1;"/>
								<stop id="stop20" offset="0.19460699" style="stop-color:#c200be;stop-opacity:1;"/>
								<stop id="stop22" offset="0.31460699" style="stop-color:#1000ae;stop-opacity:1;"/>
								<stop id="stop24" offset="0.72999996" style="stop-color:#1000ae;stop-opacity:1;"/>
								<stop id="stop26" offset="0.85707897" style="stop-color:#00dab6;stop-opacity:1;"/>
								<stop id="stop28" offset="1" style="stop-color:#00dab6;stop-opacity:1;"/>
								<a:midPointStop offset="0" style="stop-color:#CF0000"/>
								<a:midPointStop offset="0.5" style="stop-color:#CF0000"/>
								<a:midPointStop offset="0.157303" style="stop-color:#7C0000"/>
								<a:midPointStop offset="0.5" style="stop-color:#7C0000"/>
								<a:midPointStop offset="0.314607" style="stop-color:#CF0000"/>
								<a:midPointStop offset="0.5" style="stop-color:#CF0000"/>
								<a:midPointStop offset="0.65" style="stop-color:#B80000"/>
								<a:midPointStop offset="0.5" style="stop-color:#B80000"/>
								<a:midPointStop offset="0.837079" style="stop-color:#CF0000"/>
								<a:midPointStop offset="0.5" style="stop-color:#CF0000"/>
								<a:midPointStop offset="1" style="stop-color:#FF0000"/>
							</linearGradient><linearGradient inkscape:collect="always" xlink:href="#XMLID_17_" id="linearGradient7085" x1="133.17909" y1="151.1393" x2="132.62358" y2="123.21392" gradientUnits="userSpaceOnUse"/><linearGradient gradientTransform="matrix(1.567692,0,0,1.567692,-69.82581,15.22741)" x1="126.18921" y1="39.617504" x2="126.18921" y2="112.30453" id="linearGradient3800" gradientUnits="userSpaceOnUse">
								<stop style="stop-color:#d40000;stop-opacity:1;" offset="0" id="stop3802"/>
								<stop style="stop-color:#d40000;stop-opacity:1;" offset="0.15730301" id="stop3804"/>
								<stop style="stop-color:#fc0;stop-opacity:1;" offset="0.31460699" id="stop3806"/>
								<stop style="stop-color:#fc0;stop-opacity:1;" offset="0.64999998" id="stop3808"/>
								<stop style="stop-color:green;stop-opacity:1;" offset="0.83707899" id="stop3810"/>
								<stop style="stop-color:green;stop-opacity:1;" offset="1" id="stop3812"/>
								<a:midPointStop style="stop-color:#CF0000" offset="0"/>
								<a:midPointStop style="stop-color:#CF0000" offset="0.5"/>
								<a:midPointStop style="stop-color:#7C0000" offset="0.157303"/>
								<a:midPointStop style="stop-color:#7C0000" offset="0.5"/>
								<a:midPointStop style="stop-color:#CF0000" offset="0.314607"/>
								<a:midPointStop style="stop-color:#CF0000" offset="0.5"/>
								<a:midPointStop style="stop-color:#B80000" offset="0.65"/>
								<a:midPointStop style="stop-color:#B80000" offset="0.5"/>
								<a:midPointStop style="stop-color:#CF0000" offset="0.837079"/>
								<a:midPointStop style="stop-color:#CF0000" offset="0.5"/>
								<a:midPointStop style="stop-color:#FF0000" offset="1"/>
							</linearGradient><linearGradient id="linearGradient3102"><stop id="stop3104" offset="0" style="stop-color:#ffc400;stop-opacity:1;"/><stop id="stop3106" offset="1" style="stop-color:#5affff;stop-opacity:1;"/></linearGradient><linearGradient id="linearGradient3092"><stop id="stop3094" offset="0" style="stop-color:#009b24;stop-opacity:1;"/><stop style="stop-color:#ffff00;stop-opacity:0.49803922;" offset="1" id="stop3100"/></linearGradient><linearGradient inkscape:collect="always" xlink:href="#linearGradient3800" id="linearGradient7696" gradientUnits="userSpaceOnUse" gradientTransform="translate(-297.79852,2.6551648)" x1="117.43855" y1="77.439568" x2="117.43855" y2="186.70547"/><linearGradient inkscape:collect="always" xlink:href="#linearGradient3102" id="linearGradient7698" gradientUnits="userSpaceOnUse" gradientTransform="matrix(0.882906,0,0,0.718281,214.8607,-5.77736)" x1="181.15758" y1="393.77765" x2="181.0789" y2="357.53842"/><linearGradient inkscape:collect="always" xlink:href="#linearGradient3092" id="linearGradient7700" gradientUnits="userSpaceOnUse" gradientTransform="matrix(0.882906,0,0,0.718281,214.8607,-5.77736)" x1="181.69249" y1="453.31204" x2="181.69249" y2="415.83539"/><linearGradient inkscape:collect="always" xlink:href="#XMLID_22_" id="linearGradient7702" gradientUnits="userSpaceOnUse" gradientTransform="matrix(1.567692,0,0,1.567692,-427.16992,-91.914455)" x1="87.396973" y1="141.97266" x2="269.33331" y2="141.97276"/></defs>
	
		
	



<g id="g9514"><polyline id="polyline9516" points="0,256 0,0 256,0 256,256 " style="fill:none"/><g style="display:inline" inkscape:label="drapeau" id="layer2"><path d="M 248.36055,32.472022 C 167.27229,-10.429768 86.183274,85.849332 5.0950169,40.005058 C 2.2811336,38.417463 1.7853684e-05,39.212792 1.7853684e-05,42.029738 C 1.7853684e-05,99.343119 1.7853684e-05,156.65726 1.7853684e-05,213.97064 C 1.7853684e-05,216.78146 2.2811336,220.54913 5.0950169,222.13519 C 87.031416,268.46019 168.96859,169.6711 250.90499,215.99533 C 253.71887,217.58215 255.99999,216.78759 255.99999,213.97064 C 255.99999,156.65726 255.99999,99.343119 255.99999,42.029738 C 255.99999,39.218915 253.71887,35.452015 250.90499,33.864421 C 250.05685,33.385234 249.2087,32.921355 248.36055,32.472022 z " style="fill:#4d4d4d" id="path15"/><path d="M 248.36055,37.567021 C 248.36055,39.421 233.46901,27.361714 211.05133,26.512802 C 188.63516,24.161264 158.69592,33.018571 128.59899,41.939411 C 98.502062,50.838819 68.2505,59.830085 45.210481,57.499214 C 22.170459,56.646475 6.3427413,44.472367 5.0950169,45.100057 C 5.0950169,49.976129 5.0950169,212.16336 5.0950169,217.04096 C 6.3297279,216.23874 22.002055,228.52232 44.892808,229.4363 C 67.782795,231.83529 97.891978,222.86699 128.00038,213.92855 C 158.10957,204.99929 188.21874,196.07231 211.10797,198.49122 C 233.99872,199.42357 249.67104,211.70178 250.90499,210.90033 C 250.90499,206.02272 250.90499,43.835492 250.90499,38.95942 C 249.63124,38.236811 248.36055,37.567021 248.36055,37.567021 z " style="fill:#00923f;fill-opacity:1" id="path30"/><path d="M 7.6425164,106.53247 C 7.6425164,120.90357 7.6425164,135.27466 7.6425164,149.64576 C 87.881857,192.50093 168.12198,97.77426 248.36055,140.63329 C 248.36055,126.26221 248.36055,111.89111 248.36055,97.520008 C 168.12044,54.660972 87.881857,149.38841 7.6425164,106.53247 z " style="fill:#ffffff" id="path75"/><path d="M 248.36055,206.96042 C 168.12044,164.50797 87.881857,258.33602 7.6425164,215.88739 C 7.6425164,160.27184 7.6425164,104.65628 7.6425164,49.041485 C 87.881857,91.490877 168.12198,-2.3379361 248.36055,40.114521 C 248.36055,95.730077 248.36055,151.34564 248.36055,206.96042 z " style="fill:#00923f;fill-opacity:1" id="path45"/><path sodipodi:nodetypes="ccccc" style="fill:#f8c300" id="path9523" d="M 126.75752,61.607025 C 92.719319,97.738438 59.329839,140.35706 22.300347,146.57556 C 64.180568,169.78162 97.40504,184.33194 126.75752,195.01026 C 164.8231,148.83184 199.43325,121.65834 231.21487,110.0417 C 197.20677,89.841717 163.76759,66.797134 126.75752,61.607025 z "/><g transform="matrix(1,-0.408855,0,1,0,51.78738)" id="g3859"><circle transform="matrix(2.517043e-3,0,0,2.517043e-3,0.905431,40.21214)" cx="49963" cy="35000" r="17464" id="circle2066" sodipodi:cx="49963" sodipodi:cy="35000" sodipodi:rx="17464" sodipodi:ry="17464" style="fill:#28166f"/><path d="M 131.11972,137.79032 L 131.65079,139.13192 L 133.088,139.22252 L 131.98054,140.14376 L 132.3353,141.54072 L 131.11972,140.76799 L 129.90144,141.54072 L 130.2589,140.14376 L 129.14874,139.22252 L 130.58596,139.13192 L 131.11972,137.79032 z M 163.98208,142.48209 L 164.43525,143.62483 L 165.66108,143.70287 L 164.71462,144.48818 L 165.0192,145.67622 L 163.98208,145.01928 L 162.94262,145.67622 L 163.24718,144.48818 L 162.30326,143.70287 L 163.52909,143.62483 L 163.98208,142.48209 z M 159.27771,146.12425 L 159.81147,147.46332 L 161.24869,147.55645 L 160.13853,148.47518 L 160.49599,149.87213 L 159.27771,149.10191 L 158.05962,149.87213 L 158.41689,148.47518 L 157.30692,147.55645 L 158.74665,147.46332 L 159.27771,146.12425 z M 157.53341,141.40984 L 158.16522,142.99809 L 159.86923,143.10884 L 158.55542,144.19873 L 158.97819,145.85242 L 157.53341,144.93872 L 156.09116,145.85242 L 156.5141,144.19873 L 155.20012,143.10884 L 156.9043,142.99809 L 157.53341,141.40984 z M 157.19627,149.62043 L 157.72734,150.95949 L 159.16708,151.05012 L 158.0571,151.97133 L 158.41438,153.36831 L 157.19627,152.59556 L 155.97801,153.36831 L 156.33546,151.97133 L 155.22531,151.05012 L 156.66252,150.95949 L 157.19627,149.62043 z M 153.08091,151.78509 L 153.53389,152.92531 L 154.75972,153.00585 L 153.81579,153.78864 L 154.12037,154.97922 L 153.08091,154.32226 L 152.04379,154.97922 L 152.34835,153.78864 L 151.40191,153.00585 L 152.62774,152.92531 L 153.08091,151.78509 z M 148.84968,155.71923 L 149.38326,157.0583 L 150.82047,157.15142 L 149.71049,158.07014 L 150.06795,159.4671 L 148.84968,158.69437 L 147.63393,159.4671 L 147.98886,158.07014 L 146.88141,157.15142 L 148.31861,157.0583 L 148.84968,155.71923 z M 148.79931,160.64255 L 149.25247,161.78529 L 150.4783,161.86332 L 149.53437,162.64863 L 149.83895,163.8392 L 148.79931,163.18225 L 147.76237,163.8392 L 148.06693,162.64863 L 147.12049,161.86332 L 148.34632,161.78529 L 148.79931,160.64255 z M 148.7313,151.74229 L 149.18448,152.88251 L 150.41031,152.96054 L 149.46386,153.74586 L 149.76842,154.93641 L 148.7313,154.27948 L 147.69185,154.93641 L 147.99642,153.74586 L 147.04996,152.96054 L 148.27832,152.88251 L 148.7313,151.74229 z M 143.54625,152.76169 L 144.00194,153.90444 L 145.22759,153.98247 L 144.28133,154.76778 L 144.58589,155.95833 L 143.54625,155.3014 L 142.50931,155.95833 L 142.81389,154.76778 L 141.86743,153.98247 L 143.09326,153.90444 L 143.54625,152.76169 z M 140.22136,110.57356 L 140.85299,112.1618 L 142.55717,112.27003 L 141.24319,113.35993 L 141.66613,115.01362 L 140.22136,114.09992 L 138.77892,115.01362 L 139.20186,113.35993 L 137.88788,112.27003 L 139.59206,112.1618 L 140.22136,110.57356 z M 139.52659,156.78645 L 140.05765,158.12802 L 141.49738,158.21864 L 140.3874,159.13989 L 140.74486,160.53433 L 139.52659,159.7641 L 138.30831,160.53433 L 138.66577,159.13989 L 137.55579,158.21864 L 138.993,158.12802 L 139.52659,156.78645 z M 137.07995,123.934 L 137.53564,125.07423 L 138.76147,125.15479 L 137.81502,125.93757 L 138.1196,127.12815 L 137.07995,126.47119 L 136.04302,127.12815 L 136.34759,125.93757 L 135.40114,125.15479 L 136.62697,125.07423 L 137.07995,123.934 z M 135.91457,151.65419 L 136.36774,152.79693 L 137.59339,152.87497 L 136.64964,153.65776 L 136.95421,154.84833 L 135.91457,154.19138 L 134.87764,154.84833 L 135.1822,153.65776 L 134.23575,152.87497 L 135.46159,152.79693 L 135.91457,151.65419 z M 127.0898,134.02232 L 127.62104,135.36138 L 129.06077,135.45451 L 127.95061,136.37324 L 128.30807,137.77018 L 127.0898,136.99999 L 125.87152,137.77018 L 126.22898,136.37324 L 125.119,135.45451 L 126.55622,135.36138 L 127.0898,134.02232 z M 126.83308,146.49173 L 127.46236,148.08 L 129.16889,148.18824 L 127.85258,149.2781 L 128.27533,150.93433 L 126.83308,150.02064 L 125.39084,150.93433 L 125.81378,149.2781 L 124.49727,148.18824 L 126.20379,148.08 L 126.83308,146.49173 z M 126.97664,162.3919 L 127.21825,163.00103 L 127.87272,163.04382 L 127.36918,163.46164 L 127.53037,164.09847 L 126.97664,163.74608 L 126.42291,164.09847 L 126.58393,163.46164 L 126.08056,163.04382 L 126.73504,163.00103 L 126.97664,162.3919 z M 124.20026,141.37712 L 124.54009,142.23292 L 125.45632,142.2908 L 124.74895,142.87727 L 124.97815,143.7683 L 124.20026,143.27496 L 123.42507,143.7683 L 123.65157,142.87727 L 122.9442,142.2908 L 123.86295,142.23292 L 124.20026,141.37712 z M 120.98852,138.60081 L 121.44168,139.74356 L 122.66734,139.82158 L 121.72107,140.6044 L 122.02563,141.79495 L 120.98852,141.13799 L 119.94906,141.79495 L 120.25363,140.6044 L 119.30718,139.82158 L 120.53553,139.74356 L 120.98852,138.60081 z M 109.57122,128.10475 L 110.10228,129.44633 L 111.5395,129.53695 L 110.43204,130.45819 L 110.78698,131.85514 L 109.57122,131.0824 L 108.35294,131.85514 L 108.7104,130.45819 L 107.60043,129.53695 L 109.03764,129.44633 L 109.57122,128.10475 z M 108.28494,150.30757 L 108.91423,151.89584 L 110.62093,152.00658 L 109.30443,153.09647 L 109.72737,154.75015 L 108.28494,153.83647 L 106.84017,154.75015 L 107.26563,153.09647 L 105.94913,152.00658 L 107.65331,151.89584 L 108.28494,150.30757 z M 103.45735,141.54323 L 103.99093,142.8823 L 105.42814,142.97545 L 104.31817,143.89415 L 104.67562,145.29111 L 103.45735,144.51838 L 102.24159,145.29111 L 102.59653,143.89415 L 101.48907,142.97545 L 102.92628,142.8823 L 103.45735,141.54323 z M 101.8665,146.48168 L 102.31967,147.62442 L 103.5455,147.70244 L 102.59905,148.48524 L 102.90362,149.6758 L 101.8665,149.01886 L 100.82704,149.6758 L 101.13161,148.48524 L 100.18516,147.70244 L 101.41099,147.62442 L 101.8665,146.48168 z M 98.586938,135.24811 L 98.926587,136.1014 L 99.842813,136.1618 L 99.135631,136.74828 L 99.364642,137.63679 L 98.586938,137.14598 L 97.811573,137.63679 L 98.038066,136.74828 L 97.330883,136.1618 L 98.249628,136.1014 L 98.586938,135.24811 z M 94.55198,137.02011 L 95.181267,138.60838 L 96.887791,138.7166 L 95.571469,139.80647 L 95.994232,141.46269 L 94.55198,140.549 L 93.109729,141.46269 L 93.532672,139.80647 L 92.21617,138.7166 L 93.922874,138.60838 L 94.55198,137.02011 z M 90.930071,118.73128 L 91.561877,120.31954 L 93.265882,120.42777 L 91.951897,121.51765 L 92.374841,123.17386 L 90.930071,122.26019 L 89.487819,123.17386 L 89.910582,121.51765 L 88.596779,120.42777 L 90.300784,120.31954 L 90.930071,118.73128 z M 89.938287,141.1984 L 90.471868,142.54001 L 91.909082,142.63059 L 90.799104,143.55185 L 91.156564,144.94627 L 89.938287,144.17608 L 88.72001,144.94627 L 89.07747,143.55185 L 87.967492,142.63059 L 89.407225,142.54001 L 89.938287,141.1984 z " id="path2068" style="fill:#ffffff"/><path d="M 100.42173,114.72919 C 126.56881,114.72919 150.53857,124.34679 168.98094,140.21928 C 169.59007,138.0798 170.04071,135.87487 170.3201,133.61959 C 151.19808,118.10957 126.8633,108.79651 100.42173,108.79651 C 95.838259,108.79651 91.317574,109.08346 86.875145,109.62714 C 85.926177,111.65336 85.125805,113.76013 84.488962,115.93738 C 89.686608,115.14199 95.007665,114.72919 100.42173,114.72919 z " id="path9528" style="fill:#ffffff"/><path d="M 89.11273,112.44624 C 89.147989,112.87664 89.273739,113.20135 89.4853,113.42284 C 89.696683,113.64435 89.973547,113.73998 90.318414,113.7123 C 90.663281,113.6821 90.925034,113.54114 91.096118,113.28441 C 91.269901,113.03019 91.335203,112.68786 91.299944,112.25745 C 91.262345,111.82702 91.136415,111.50234 90.925034,111.28083 C 90.710953,111.05934 90.43157,110.96369 90.084364,110.99389 C 89.739499,111.02158 89.482783,111.16505 89.311518,111.41928 C 89.142952,111.67098 89.074951,112.0133 89.11273,112.44624 z M 88.29221,112.51671 C 88.2368,111.88493 88.367767,111.36893 88.679713,110.96872 C 88.991838,110.56852 89.439967,110.34449 90.023919,110.29416 C 90.607872,110.24382 91.088562,110.38981 91.46617,110.72961 C 91.843779,111.07194 92.060197,111.55771 92.113088,112.18697 C 92.168497,112.81876 92.03753,113.33474 91.722886,113.73497 C 91.410761,114.13517 90.960294,114.3617 90.37886,114.41203 C 89.792388,114.46238 89.314037,114.3164 88.936608,113.97407 C 88.561518,113.63175 88.3451,113.14598 88.29221,112.51671 z M 94.675391,111.78677 L 95.624359,111.75404 C 95.830703,111.74649 95.97912,111.70118 96.074827,111.61309 C 96.168014,111.52751 96.21083,111.39412 96.205793,111.21541 C 96.200756,111.04423 96.147865,110.91587 96.05216,110.83281 C 95.954114,110.74722 95.813073,110.70695 95.626878,110.7145 L 94.640131,110.74722 L 94.675391,111.78677 z M 93.942842,114.01939 L 93.812055,110.09784 L 95.714849,110.03491 C 96.140309,110.01979 96.45999,110.10035 96.671372,110.27655 C 96.885272,110.45273 96.99609,110.72961 97.008683,111.10464 C 97.016239,111.34376 96.973423,111.54514 96.877716,111.70874 C 96.784708,111.87234 96.643668,111.9856 96.457472,112.05105 C 96.628556,112.10643 96.754485,112.19452 96.830043,112.31535 C 96.905421,112.43869 96.953274,112.62997 96.973423,112.89174 L 97.006165,113.35487 C 97.006165,113.35739 97.006165,113.36243 97.006165,113.36998 C 97.018758,113.60407 97.074167,113.74502 97.172211,113.79033 L 97.17473,113.91115 L 96.291245,113.94137 C 96.261202,113.88597 96.238535,113.82054 96.220905,113.73998 C 96.203274,113.65944 96.188163,113.56379 96.183126,113.45054 L 96.15794,113.03773 C 96.140309,112.79611 96.089939,112.63249 96.004306,112.55195 C 95.918854,112.46889 95.767738,112.43112 95.553838,112.43869 L 94.698058,112.46637 L 94.750949,113.9917 L 93.942842,114.01939 z M 99.732176,113.13841 L 100.37909,113.15099 C 100.754,113.15855 101.02835,113.06542 101.19961,112.8716 C 101.3707,112.68032 101.46137,112.36064 101.46892,111.92267 C 101.47648,111.48219 101.40596,111.16001 101.2525,110.95111 C 101.09887,110.7422 100.85727,110.63396 100.52499,110.62893 L 99.780029,110.61382 L 99.732176,113.13841 z M 98.926587,113.8306 L 99.002145,109.90905 L 100.53758,109.93673 C 101.14169,109.94933 101.58712,110.12048 101.87657,110.45022 C 102.16603,110.77996 102.30455,111.2758 102.29196,111.93779 C 102.2844,112.29521 102.22396,112.60983 102.1108,112.88168 C 101.99495,113.15353 101.83124,113.36998 101.62238,113.5336 C 101.46389,113.6544 101.28506,113.73998 101.08376,113.79033 C 100.88497,113.84067 100.60559,113.86332 100.24561,113.85577 L 98.926587,113.8306 z M 103.9053,113.91869 L 104.11686,110.00218 L 106.96358,110.15572 L 106.9258,110.83533 L 104.87441,110.72457 L 104.8316,111.56024 L 106.70435,111.6609 L 106.66909,112.33044 L 104.79382,112.22976 L 104.74111,113.23659 L 106.88551,113.35237 L 106.84773,114.07727 L 103.9053,113.91869 z M 108.52421,114.19306 L 108.93941,110.29164 L 110.12747,110.41749 L 110.58567,113.47066 L 111.66794,110.58361 L 112.85852,110.70948 L 112.44313,114.61089 L 111.69061,114.53035 L 112.0254,111.38404 L 110.8978,114.44727 L 110.0771,114.35918 L 109.61152,111.12731 L 109.27421,114.2736 L 108.52421,114.19306 z M 118.9195,115.53212 L 119.74002,111.69614 L 122.52647,112.29269 L 122.38291,112.9597 L 120.37686,112.5293 L 120.20074,113.34733 L 122.03824,113.73998 L 121.89719,114.39694 L 120.0597,114.00177 L 119.84832,114.98845 L 121.95009,115.43898 L 121.79897,116.1488 L 118.9195,115.53212 z M 129.30237,115.77376 L 130.05742,115.97764 C 130.26125,116.0305 130.41992,116.02797 130.53577,115.96756 C 130.65145,115.90464 130.73707,115.7788 130.78745,115.58499 C 130.83764,115.40627 130.82775,115.25777 130.76226,115.13946 C 130.69678,115.02367 130.57336,114.94061 130.39221,114.89279 L 129.59939,114.67884 L 129.30237,115.77376 z M 129.11349,116.4584 L 128.75117,117.80502 L 127.97077,117.59611 L 128.99025,113.80795 L 130.67662,114.26102 C 131.07439,114.36925 131.34621,114.55552 131.49715,114.81477 C 131.64575,115.07655 131.66589,115.40878 131.5576,115.80901 C 131.45434,116.19915 131.27318,116.47349 131.01394,116.62956 C 130.75722,116.78814 130.44006,116.81581 130.07001,116.71766 L 129.11349,116.4584 z M 133.83044,117.07507 L 134.73659,117.35446 C 134.93304,117.41487 135.09154,117.41991 135.20739,117.36704 C 135.32558,117.3167 135.40869,117.20343 135.46159,117.03229 C 135.51178,116.8712 135.5044,116.73275 135.44143,116.622 C 135.37847,116.50873 135.25506,116.42568 135.07894,116.3703 L 134.135,116.08083 L 133.83044,117.07507 z M 132.41086,118.94776 L 133.56113,115.19736 L 135.38099,115.75615 C 135.78882,115.88199 136.06569,116.06321 136.20907,116.2973 C 136.35263,116.53391 136.36774,116.83092 136.25692,117.19086 C 136.1864,117.41991 136.0808,117.59611 135.93723,117.71942 C 135.79385,117.84276 135.62512,117.90568 135.42884,117.90568 C 135.57222,118.01394 135.6629,118.13725 135.69563,118.27822 C 135.72586,118.41918 135.70823,118.6155 135.64275,118.86972 L 135.52203,119.31775 C 135.52203,119.32028 135.51951,119.32532 135.51699,119.33285 C 135.45404,119.55687 135.45906,119.7079 135.53697,119.7834 L 135.50188,119.89919 L 134.65617,119.63742 C 134.64611,119.57701 134.64358,119.50654 134.65348,119.42347 C 134.66356,119.34292 134.68118,119.24727 134.7114,119.13904 L 134.82223,118.74135 C 134.88519,118.50727 134.89023,118.33612 134.83733,118.23291 C 134.78192,118.1272 134.65348,118.04163 134.44713,117.97869 L 133.62913,117.72697 L 133.18118,119.18436 L 132.41086,118.94776 z M 138.38387,118.93517 C 138.23528,119.34041 138.2126,119.68775 138.31082,119.97975 C 138.40654,120.2692 138.61791,120.47306 138.94263,120.59139 C 139.26987,120.70967 139.56436,120.69205 139.82863,120.53348 C 140.09291,120.37491 140.29925,120.09301 140.44785,119.68775 C 140.59375,119.28251 140.61893,118.93517 140.52088,118.6457 C 140.42014,118.35373 140.20606,118.14733 139.87901,118.02903 C 139.55681,117.91072 139.26231,117.93086 139.00056,118.08692 C 138.73863,118.2455 138.53229,118.5274 138.38387,118.93517 z M 137.61102,118.65074 C 137.83014,118.05672 138.16493,117.64391 138.6154,117.41235 C 139.06838,117.18331 139.5694,117.16819 140.12062,117.36958 C 140.6693,117.57093 141.0444,117.90568 141.24319,118.37386 C 141.44197,118.84454 141.4319,119.37565 141.21296,119.96967 C 140.99654,120.56369 140.66175,120.97648 140.20606,121.20554 C 139.75308,121.43711 139.24972,121.4522 138.70102,121.25084 C 138.14964,121.04949 137.77724,120.71471 137.58079,120.24653 C 137.38453,119.77837 137.39461,119.24477 137.61102,118.65074 z M 144.87031,123.25943 C 144.65875,123.38277 144.44988,123.45074 144.24102,123.46333 C 144.0345,123.47591 143.81556,123.43313 143.58655,123.33495 C 143.0832,123.11849 142.7484,122.77113 142.58469,122.28786 C 142.42116,121.80207 142.46147,121.27602 142.70306,120.70717 C 142.9497,120.13076 143.30212,119.73811 143.76016,119.52667 C 144.21835,119.31271 144.70912,119.31775 145.22759,119.53924 C 145.68075,119.73307 146.00296,119.99736 146.19671,120.33716 C 146.39045,120.67445 146.43327,121.04445 146.32516,121.44716 L 145.56743,121.12498 C 145.60268,120.91858 145.56994,120.73486 145.46938,120.57628 C 145.37115,120.41769 145.20762,120.29185 144.98095,120.19369 C 144.6789,120.06532 144.39448,120.07539 144.12769,120.22389 C 143.8609,120.36987 143.64448,120.63921 143.47825,121.02935 C 143.30969,121.422 143.26938,121.76683 143.35502,122.06637 C 143.44048,122.36589 143.63944,122.58237 143.95157,122.71576 C 144.18814,122.81394 144.41463,122.82903 144.63104,122.75855 C 144.85016,122.68556 145.02881,122.53705 145.16984,122.31304 L 144.35166,121.96317 L 144.61359,121.3465 L 146.10856,121.98331 L 145.27544,123.93652 L 144.77964,123.72509 L 144.87031,123.25943 z M 148.60051,123.15624 L 149.45126,123.57408 C 149.63746,123.66467 149.79109,123.69239 149.91432,123.65966 C 150.03773,123.62693 150.13847,123.53128 150.21889,123.36768 C 150.29193,123.21665 150.30704,123.08075 150.26171,122.95992 C 150.21637,122.8391 150.10826,122.73841 149.94202,122.65535 L 149.05602,122.22242 L 148.60051,123.15624 z M 146.90407,124.78225 L 148.62823,121.26091 L 150.33726,122.09657 C 150.72243,122.28536 150.96655,122.50685 151.06964,122.76105 C 151.17542,123.0153 151.14519,123.31231 150.97914,123.64958 C 150.87337,123.86606 150.74006,124.0221 150.58139,124.12279 C 150.42038,124.22095 150.24156,124.25621 150.04781,124.22599 C 150.17374,124.35687 150.24156,124.49026 150.25415,124.63626 C 150.26171,124.77975 150.21386,124.97104 150.10826,125.21016 L 149.91936,125.63552 C 149.91936,125.63805 149.91684,125.64309 149.9118,125.64812 C 149.81376,125.85955 149.79613,126.01058 149.86161,126.09866 L 149.80872,126.20438 L 149.0132,125.81676 C 149.0132,125.75382 149.02328,125.68337 149.04594,125.60532 C 149.06862,125.52478 149.10136,125.43416 149.14921,125.33347 L 149.32029,124.95844 C 149.41852,124.73694 149.44875,124.56831 149.41348,124.45505 C 149.3757,124.34178 149.26002,124.23857 149.06862,124.14544 L 148.30099,123.76788 L 147.62889,125.13715 L 146.90407,124.78225 z M 151.28876,127.03501 L 153.19659,123.6068 L 155.68603,124.99116 L 155.35375,125.5877 L 153.55908,124.58844 L 153.15377,125.32089 L 154.79499,126.23207 L 154.46775,126.81854 L 152.82653,125.90737 L 152.33576,126.78833 L 154.21607,127.8329 L 153.86365,128.46721 L 151.28876,127.03501 z M 155.71625,128.25073 L 156.39825,128.66102 C 156.3128,128.85986 156.30524,129.04361 156.37558,129.20723 C 156.4461,129.37082 156.59974,129.52437 156.8363,129.66532 C 157.03762,129.78866 157.20888,129.84403 157.35477,129.83143 C 157.50067,129.82388 157.614,129.74838 157.69964,129.60743 C 157.82035,129.40355 157.62912,129.0587 157.12576,128.57292 C 157.1182,128.56536 157.11316,128.56035 157.10812,128.55531 C 157.09554,128.54272 157.07538,128.52258 157.04768,128.49741 C 156.77333,128.23817 156.59721,128.02673 156.51662,127.86059 C 156.44106,127.7146 156.41336,127.55604 156.42847,127.3899 C 156.44358,127.22379 156.50402,127.05514 156.60963,126.87896 C 156.80607,126.55174 157.06783,126.3705 157.39507,126.32772 C 157.7223,126.28997 158.09721,126.39567 158.51512,126.64739 C 158.90784,126.88399 159.15952,127.16337 159.26764,127.48052 C 159.37845,127.8002 159.33565,128.13244 159.14692,128.47726 L 158.48237,128.07706 C 158.56801,127.90591 158.5806,127.7448 158.51764,127.5938 C 158.4572,127.44025 158.32137,127.29928 158.11484,127.17597 C 157.93369,127.06522 157.77267,127.01739 157.63164,127.02746 C 157.49077,127.04004 157.38247,127.11052 157.30189,127.24141 C 157.19376,127.42011 157.30692,127.66678 157.63415,127.98645 C 157.7223,128.07202 157.79265,128.13999 157.8405,128.18781 C 158.04955,128.39924 158.19292,128.55278 158.27604,128.64842 C 158.35663,128.74659 158.42193,128.83721 158.47231,128.92782 C 158.56297,129.0864 158.60579,129.24748 158.59824,129.4136 C 158.59068,129.58226 158.53527,129.75341 158.42949,129.92709 C 158.2181,130.27696 157.93872,130.4758 157.5863,130.52616 C 157.23388,130.57649 156.84385,130.47328 156.41587,130.21403 C 155.99312,129.95981 155.71877,129.6628 155.59788,129.32047 C 155.47699,128.98067 155.51476,128.62325 155.71625,128.25073 z M 159.84907,130.83575 L 160.50858,131.28378 C 160.41306,131.47759 160.39795,131.65882 160.46073,131.82745 C 160.52117,131.99357 160.66725,132.15468 160.89627,132.30822 C 161.09002,132.43909 161.25877,132.50454 161.40466,132.50202 C 161.55074,132.49951 161.66893,132.43155 161.75961,132.29562 C 161.89291,132.09678 161.7193,131.7444 161.24113,131.23091 C 161.23609,131.22587 161.22854,131.21833 161.22603,131.2133 C 161.21091,131.20071 161.19328,131.18058 161.16809,131.15036 C 160.90886,130.87853 160.74264,130.65955 160.66977,130.48839 C 160.60428,130.33989 160.58414,130.17879 160.60681,130.01519 C 160.632,129.84905 160.7,129.68293 160.81567,129.51429 C 161.02957,129.19715 161.30157,129.02849 161.62864,129.00584 C 161.95839,128.9832 162.32593,129.10905 162.73124,129.3834 C 163.11119,129.64015 163.34541,129.92961 163.43842,130.25431 C 163.53161,130.57902 163.47369,130.90621 163.26482,131.24099 L 162.62042,130.80806 C 162.71613,130.64192 162.73627,130.48084 162.68339,130.32477 C 162.63049,130.16873 162.50205,130.02274 162.30326,129.88681 C 162.12714,129.76851 161.96847,129.71062 161.8276,129.71566 C 161.68656,129.72069 161.57341,129.78614 161.48777,129.91198 C 161.37192,130.08315 161.47014,130.33737 161.77975,130.67213 C 161.86538,130.76274 161.93069,130.83575 161.97602,130.88608 C 162.17247,131.10507 162.30829,131.26867 162.38637,131.36684 C 162.46193,131.46752 162.52219,131.56568 162.56753,131.6563 C 162.65064,131.8199 162.68339,131.98352 162.66827,132.14964 C 162.65316,132.31578 162.58767,132.48441 162.472,132.65304 C 162.24533,132.99032 161.95335,133.1766 161.59859,133.2068 C 161.24365,133.23952 160.861,133.11618 160.44562,132.83427 C 160.03796,132.55739 159.78125,132.24529 159.67799,131.90045 C 159.57221,131.55309 159.63013,131.19818 159.84907,130.83575 z M 164.83533,133.48116 C 164.57359,133.82599 164.44784,134.15321 164.45791,134.45776 C 164.46546,134.76485 164.60884,135.02158 164.88319,135.2305 C 165.16005,135.43941 165.44951,135.50738 165.74904,135.43439 C 166.04606,135.36138 166.32544,135.14996 166.5872,134.8051 C 166.84661,134.4628 166.97236,134.13558 166.96228,133.82849 C 166.94969,133.52142 166.80631,133.26217 166.52945,133.05326 C 166.25511,132.84433 165.96816,132.77888 165.67114,132.85441 C 165.37413,132.92742 165.09476,133.13632 164.83533,133.48116 z M 164.17853,132.98529 C 164.56099,132.4819 165.00157,132.18488 165.49988,132.09426 C 166.0009,132.00617 166.48411,132.13956 166.95221,132.49195 C 167.42049,132.84686 167.67972,133.27476 167.73261,133.78319 C 167.78281,134.28913 167.61928,134.79505 167.23915,135.29844 C 166.85668,135.80438 166.41359,136.1014 165.91275,136.18697 C 165.41173,136.27507 164.92601,136.14419 164.46043,135.79181 C 163.99215,135.4369 163.73292,135.00647 163.68254,134.50055 C 163.63235,133.99715 163.79588,133.49121 164.17853,132.98529 z " id="path9530" style="fill:#00923f"/></g></g><g sodipodi:insensitive="true" style="opacity:1;display:inline" inkscape:label="ombre" id="layer1"><path d="M 248.35974,206.96001 C 168.11962,164.50832 87.879509,258.33713 7.6401612,215.88544 C 7.6401612,160.27066 7.6401612,104.65509 7.6401612,49.039546 C 87.879509,91.490468 168.11962,-2.3375794 248.35974,40.114878 C 248.35974,95.729664 248.35974,151.34523 248.35974,206.96001 z " style="fill:url(#linearGradient1945)" id="path5924"/></g></g></svg>