<?xml version="1.0" encoding="UTF-8" standalone="no"?>
<svg xmlns="http://www.w3.org/2000/svg" xmlns:xlink="http://www.w3.org/1999/xlink" xml:space="preserve" width="64" height="64" version="1.0" viewBox="0 0 256 256">
  <defs>
    <linearGradient id="a" x1="87.396973" x2="240.94727" y1="141.97266" y2="141.97266" gradientTransform="translate(-129.3706 -94.56783) scale(1.56769)" gradientUnits="userSpaceOnUse">
      <stop offset="0" stop-color="#fff" stop-opacity=".66666675"/>
      <stop offset=".24074516" stop-color="#d7d7d7" stop-opacity=".21875"/>
      <stop offset=".4585622" stop-color="#4d4d4d" stop-opacity="0"/>
      <stop offset=".71891773" stop-color="#fff" stop-opacity=".51041669"/>
      <stop offset=".87351298" stop-color="#f2f2f2" stop-opacity=".40000001"/>
      <stop offset="1" stop-color="#fff" stop-opacity=".62352943"/>
    </linearGradient>
    <linearGradient xlink:href="#a" id="b" x1="87.396973" x2="269.33331" y1="141.97266" y2="141.97276" gradientTransform="translate(-129.3714 -94.56962) scale(1.56769)" gradientUnits="userSpaceOnUse"/>
  </defs>
  <path fill="#633" d="M248.36055 32.472022c-81.08826-42.90179-162.177276 53.37731-243.2655331 7.533036-2.8138833-1.587595-5.09499905-.792266-5.09499905 2.02468V213.97064c0 2.81082 2.28111575 6.57849 5.09499905 8.16455 81.9363991 46.325 163.8735731-52.46409 245.8099731-6.13986 2.81388 1.58682 5.095.79226 5.095-2.02469V42.029738c0-2.810823-2.28112-6.577723-5.095-8.165317-.84814-.479187-1.69629-.943066-2.54444-1.392399z"/>
  <path fill="#bf0a30" d="M248.36055 37.567021c0 1.853979-14.89154-10.205307-37.30922-11.054219-22.41617-2.351538-52.35541 6.505769-82.45234 15.426609-30.09693 8.899408-60.34849 17.890674-83.38851 15.559803-23.04002-.852739-38.86774-13.026847-40.11546-12.399157V217.04096c1.23471-.80222 16.90703 11.48136 39.79779 12.39534 22.88998 2.39899 52.99917-6.56931 83.10757-15.50775 30.10919-8.92926 60.21836-17.85624 83.10759-15.43733 22.89075.93235 38.56307 13.21056 39.79702 12.40911V38.95942c-1.27375-.722609-2.54444-1.392399-2.54444-1.392399z"/>
  <path fill="none" d="M0 256V0h256v256M0 0v-256h256V0"/>
  <path fill="#fff" d="M248.36055 49.031251c0 1.853979-14.89154-10.205307-37.30922-11.054219-22.41617-2.351538-52.35541 6.505769-82.45234 15.426609-30.09693 8.899408-60.34849 17.890674-83.38851 15.559803-23.04002-.852739-38.86774-13.026847-40.11546-12.399157v13.151714c1.23471-.80222 16.90703 10.962441 39.79779 11.876421C67.78279 83.991412 97.8916 75.350418 128 66.411978c30.10919-8.92926 60.21874-18.010573 83.10797-15.591663 22.89075.93235 38.56307 14.075425 39.79702 13.273975V50.42365c-1.27375-.722609-2.54444-1.392399-2.54444-1.392399z"/>
  <path fill="#fff" d="M248.36055 75.990144c0 1.853979-14.89154-10.205307-37.30922-11.054219-22.41617-2.351538-52.35541 6.505769-82.45234 15.426609-30.09693 8.899408-60.34849 17.890679-83.38851 15.559799C22.17046 95.069603 6.34274 82.89549 5.09502 83.52318v13.151713c1.23471-.80222 16.90703 10.962437 39.79779 11.876417C67.78279 110.9503 97.8916 102.30931 128 93.370873c30.10919-8.929262 60.21874-18.010575 83.10797-15.591665 22.89075.93235 38.56307 14.075425 39.79702 13.273975v-13.67064c-1.27375-.722609-2.54444-1.392399-2.54444-1.392399z"/>
  <path fill="#fff" d="M248.38588 102.75336c0 1.85398-14.89154-10.205308-37.30922-11.054217-22.41617-2.351538-52.35541 6.505769-82.45234 15.426607-30.096929 8.8994-60.348489 17.89067-83.388509 15.55979-23.04002-.85273-38.8677397-13.02684-40.1154597-12.39915v13.15171c1.23471-.80222 16.9070297 10.96244 39.7977897 11.87642 22.88998 2.39899 52.99879-6.242 83.107189-15.18044 30.10919-8.92926 60.21874-18.01057 83.10797-15.59166 22.89075.93235 38.56307 14.07542 39.79702 13.27397v-13.67063c-1.27375-.72261-2.54444-1.3924-2.54444-1.3924z"/>
  <path fill="#fff" d="M248.36055 130.13166c0 1.85398-14.89154-10.20531-37.30922-11.05422-22.41617-2.35153-52.35541 6.50577-82.45234 15.42661-30.09693 8.8994-60.34849 17.89067-83.38851 15.55979-23.04002-.85273-38.86774-13.02684-40.11546-12.39915v13.15171c1.23471-.80222 16.90703 10.96244 39.79779 11.87642 22.88998 2.39899 52.99879-6.242 83.10719-15.18044 30.10919-8.92926 60.21874-18.01057 83.10797-15.59166 22.89075.93235 38.56307 14.07542 39.79702 13.27397v-13.67063c-1.27375-.72261-2.54444-1.3924-2.54444-1.3924z"/>
  <path fill="#fff" d="M248.35313 157.22292c0 1.85397-14.89154-10.20531-37.30922-11.05422-22.41617-2.35154-52.35541 6.50577-82.45234 15.4266-30.09693 8.89941-60.34849 17.89067-83.38851 15.5598-23.04002-.85274-38.8677393-13.02684-40.1154593-12.39915v13.15171c1.23471-.80222 16.9070293 10.96243 39.7977893 11.87641 22.88998 2.39899 52.99879-6.242 83.10719-15.18043 30.10919-8.92926 60.21874-18.01057 83.10797-15.59166 22.89075.93235 38.56307 14.07542 39.79702 13.27397v-13.67064c-1.27375-.7226-2.54444-1.39239-2.54444-1.39239z"/>
  <path fill="#fff" d="M248.36055 185.03885c0 1.85397-14.89154-10.20531-37.30922-11.05422-22.41617-2.35154-52.35541 6.50577-82.45234 15.4266-30.09693 8.89941-60.34849 17.89067-83.38851 15.5598-23.04002-.85274-38.86774-13.02684-40.11546-12.39915v13.15171c1.23471-.80222 16.90703 10.96243 39.79779 11.87641C67.78279 219.99899 97.8916 211.358 128 202.41957c30.10919-8.92926 60.21874-18.01057 83.10797-15.59166 22.89075.93235 38.56307 14.07542 39.79702 13.27397v-13.67064c-1.27375-.7226-2.54444-1.39239-2.54444-1.39239z"/>
  <path fill="#002868" d="M114.03287 138.75591V46.220459c-25.106573 7.233576-49.484313 13.234026-68.795743 11.280363-23.04002-.85274-38.8677399-13.02685-40.1154599-12.39916v92.642558c1.23471-.80222 16.9070299 11.39052 39.7977899 12.3045 19.31551 2.02436 43.85514-4.04962 69.113413-11.29281z"/>
  <path fill="#fff" stroke="#feffff" stroke-width=".41549525" d="m24.6961147 56.1496967-.924961 2.9872-2.969176.04355 2.401328 1.79667-.916743 2.98708 2.409552-1.87575 2.409411 1.80507-.916744-2.96019 2.401335-1.8671-2.969176.04355-.924826-2.96008zm.036021 36.05001-.924961 2.9872-2.969175.04355 2.401327 1.79667-.916742 2.98708 2.409551-1.87575 2.409411 1.80507-.916744-2.96019 2.401335-1.8671-2.969176.04355-.924826-2.96008zm-.198265-17.185492-.924961 2.9872-2.969176.04355 2.401328 1.79667-.916743 2.98708 2.409552-1.87575 2.409411 1.80507-.916744-2.96019 2.401335-1.8671-2.969176.04355-.924826-2.96008zm.162244 36.332391-.924961 2.9872-2.969176.04355 2.401328 1.79667-.916743 2.98708 2.409552-1.87575 2.409411 1.80507-.916744-2.96019 2.401335-1.8671-2.969176.04355-.924826-2.96008zm0 17.62642-.924961 2.9872-2.969176.04355 2.401328 1.79667-.916743 2.98708 2.409552-1.87575 2.409411 1.80507-.916744-2.96019 2.401335-1.8671-2.969176.04355-.924826-2.96008zM41.118535 61.851437l-.924961 2.9872-2.969175.04355 2.401327 1.79667-.916743 2.98708 2.409552-1.87575 2.409411 1.80507-.916744-2.96019 2.401335-1.8671-2.969176.04355-.924826-2.96008zm0 36.408556-.924961 2.9872-2.969175.04355 2.401327 1.79667-.916742 2.98708 2.409551-1.87575 2.409411 1.80507-.916744-2.96019 2.401335-1.8671-2.969176.04355-.924826-2.96008zm.000001-17.093465-.924961 2.9872-2.969176.04355 2.401328 1.79667-.916743 2.98708 2.409552-1.87575 2.409411 1.80507-.916744-2.96019 2.401335-1.8671-2.969176.04355-.924826-2.96008zm.141787 35.11618-.924961 2.9872-2.969176.04355 2.401328 1.79667-.916743 2.98708 2.409552-1.87575 2.409411 1.80507-.916744-2.96019 2.401335-1.8671-2.969176.04355-.924826-2.96008zm.053979 19.2599-.924961 2.9872-2.969176.04355 2.401328 1.79667-.916743 2.98708 2.409552-1.87575 2.409411 1.80507-.916744-2.96019 2.401335-1.8671-2.969176.04355-.924826-2.96008zm16.79057-71.599096-.924961 2.9872-2.969176.04355 2.401328 1.79667-.916743 2.98708 2.409552-1.87575 2.409411 1.80507-.916744-2.96019 2.401335-1.8671-2.969176.04355-.924826-2.96008zm0 37.034863-.924961 2.9872-2.969175.04355 2.401327 1.79667-.916742 2.98708 2.409551-1.87575 2.409411 1.80507-.916744-2.96019 2.401335-1.8671-2.969176.04355-.924826-2.96008zm0-17.567486-.924961 2.9872-2.969176.04355 2.401328 1.79667-.916743 2.98708 2.409552-1.87575 2.409411 1.80507-.916744-2.96019 2.401335-1.8671-2.969176.04355-.924826-2.96008zm0 35.27667-.924961 2.9872-2.969176.04355 2.401328 1.79667-.916743 2.98708 2.409552-1.87575 2.409411 1.80507-.916744-2.96019 2.401335-1.8671-2.969176.04355-.924826-2.96008zm-.070127 19.30775-.924961 2.9872-2.969176.04355 2.401328 1.79667-.916743 2.98708 2.409552-1.87575 2.409411 1.80507-.916744-2.96019 2.401335-1.8671-2.969176.04355-.924826-2.96008zm20.025272-74.519434-.924961 2.9872-2.969177.04355 2.401329 1.79667-.916743 2.98708 2.409552-1.87575 2.409411 1.80507-.916744-2.96019 2.401335-1.8671-2.969176.04355-.924826-2.96008zm.000503 36.640512-.924961 2.9872-2.969176.04355 2.401328 1.79667-.916742 2.98708 2.409551-1.87575 2.409411 1.80507-.916744-2.96019 2.401335-1.8671-2.969176.04355-.924826-2.96008zm0-17.595363-.924961 2.9872-2.969176.04355 2.401328 1.79667-.916743 2.98708 2.409552-1.87575 2.409411 1.80507-.916744-2.96019 2.401335-1.8671-2.969176.04355-.924826-2.96008zm0 35.304547-.924961 2.9872-2.969176.04355 2.401328 1.79667-.916743 2.98708 2.409552-1.87575 2.409411 1.80507-.916744-2.96019 2.401335-1.8671-2.969176.04355-.924826-2.96008zm.23063 19.37589-.924961 2.9872-2.969175.04355 2.401327 1.79667-.916743 2.98708 2.409552-1.87575 2.409411 1.80507-.916744-2.96019 2.401335-1.8671-2.969176.04355-.924826-2.96008zm19.165258-76.8585952-.924961 2.9872-2.9691757.04355 2.4013277 1.79667-.916743 2.98708 2.409552-1.87575 2.409411 1.80507-.916744-2.96019 2.401335-1.8671-2.969176.04355-.924826-2.96008zm0 36.717403-.924961 2.9872-2.9691746.04355 2.4013266 1.79667-.916742 2.98708 2.409551-1.87575 2.409411 1.80507-.916744-2.96019 2.401335-1.8671-2.969176.04355-.924826-2.96008zm0-17.73438-.924961 2.9872-2.9691756.04355 2.4013276 1.79667-.916743 2.98708 2.409552-1.87575 2.409411 1.80507-.916744-2.96019 2.401335-1.8671-2.969176.04355-.924826-2.96008zm0 35.632221-.924961 2.9872-2.9691744.04355 2.4013264 1.79667-.916743 2.98708 2.409552-1.87575 2.409411 1.80507-.916744-2.96019 2.401335-1.8671-2.969176.04355-.924826-2.96008zm.114235 18.77943-.924961 2.9872-2.9691755.04355 2.4013275 1.79667-.916743 2.98708 2.409552-1.87575 2.409411 1.80507-.916744-2.96019 2.401335-1.8671-2.969176.04355-.924826-2.96008zm19.035365-78.321141-.924961 2.9872-2.9691759.04355 2.4013279 1.79667-.916743 2.98708 2.409552-1.87575 2.409411 1.80507-.916744-2.96019 2.401335-1.8671-2.969176.04355-.924826-2.96008zm-.26162 36.826858-.924961 2.9872-2.9691767.04355 2.4013287 1.79667-.916742 2.98708 2.409551-1.87575 2.409411 1.80507-.916744-2.96019 2.401335-1.8671-2.969176.04355-.924826-2.96008zm.22581-17.753058-.924961 2.9872-2.9691763.04355 2.4013283 1.79667-.916743 2.98708 2.409552-1.87575 2.409411 1.80507-.916744-2.96019 2.401335-1.8671-2.969176.04355-.924826-2.96008zm0 35.40043-.924961 2.9872-2.9691767.04355 2.4013287 1.79667-.916743 2.98708 2.409552-1.87575 2.409411 1.80507-.916744-2.96019 2.401335-1.8671-2.969176.04355-.924826-2.96008zm.021118 18.81741-.924961 2.9872-2.969177.04355 2.401329 1.79667-.916743 2.98708 2.409552-1.87575 2.409411 1.80507-.916744-2.96019 2.401335-1.8671-2.969176.04355-.924826-2.96008zM49.470724 90.9761099l-.924961 2.9872-2.969175.04355 2.401327 1.796669-.916742 2.98708 2.409551-1.87575 2.409411 1.80507-.916744-2.96019 2.401335-1.867099-2.969176.04355-.924826-2.96008zm.000001-17.653433-.924961 2.9872-2.969176.04355 2.401328 1.79667-.916743 2.98708 2.409552-1.87575 2.409411 1.80507-.916744-2.96019 2.401335-1.8671-2.969176.04355-.924826-2.96008zm0 36.048772-.924961 2.9872-2.969176.04355 2.401328 1.79667-.916743 2.98708 2.409552-1.87575 2.409411 1.80507-.916744-2.96019 2.401335-1.8671-2.969176.04355-.924826-2.96008zm0 17.88438-.924961 2.9872-2.969176.04355 2.401328 1.79667-.916743 2.98708 2.409552-1.87575 2.409411 1.80507-.916744-2.96019 2.401335-1.8671-2.969176.04355-.924826-2.96008zM33.0483037 87.2474667l-.924961 2.9872-2.969175.04355 2.401327 1.796667-.916742 2.98707 2.409551-1.87575 2.409411 1.80507-.916744-2.96018 2.401335-1.867097-2.969176.04355-.924826-2.96008zm0-18.076233-.924961 2.9872-2.969176.04355 2.401328 1.79667-.916743 2.98708 2.409552-1.87575 2.409411 1.80507-.916744-2.96019 2.401335-1.8671-2.969176.04355-.924826-2.96008zm0 36.58547-.924961 2.9872-2.969176.04355 2.401328 1.79667-.916743 2.98708 2.409552-1.87575 2.409411 1.80507-.916744-2.96019 2.401335-1.8671-2.969176.04355-.924826-2.96008zm0 17.45378-.924961 2.9872-2.969176.04355 2.401328 1.79667-.916743 2.98708 2.409552-1.87575 2.409411 1.80507-.916744-2.96019 2.401335-1.8671-2.969176.04355-.924826-2.96008zM66.73916 91.7294089l-.924961 2.9872-2.969175.04355 2.401327 1.79667-.916742 2.987075 2.409551-1.875745 2.409411 1.805065-.916744-2.960185 2.401335-1.8671-2.969176.04355-.924826-2.96008zm-.000006-17.484572-.924961 2.9872-2.969176.04355 2.401328 1.79667-.916743 2.98708 2.409552-1.87575 2.409411 1.80507-.916744-2.96019 2.401335-1.8671-2.969176.04355-.924826-2.96008zm.415367 35.882797-.924961 2.9872-2.969176.04355 2.401328 1.79667-.916743 2.98708 2.409552-1.87575 2.409411 1.80507-.916744-2.96019 2.401335-1.8671-2.969176.04355-.924826-2.96008zm-.126569 17.45378-.924961 2.9872-2.969176.04355 2.401328 1.79667-.916743 2.98708 2.409552-1.87575 2.409411 1.80507-.916744-2.96019 2.401335-1.8671-2.969176.04355-.924826-2.96008zm20.309583-37.6493481-.924961 2.9872-2.969175.04355 2.401327 1.79667-.916742 2.987081 2.409551-1.87575 2.409411 1.80507-.916744-2.960191 2.401335-1.8671-2.969176.04355-.924826-2.96008zm.077184-18.472617-.924961 2.9872-2.969176.04355 2.401328 1.79667-.916743 2.98708 2.409552-1.87575 2.409411 1.80507-.916744-2.96019 2.401335-1.8671-2.969176.04355-.924826-2.96008zm-.077184 36.863118-.924961 2.9872-2.969176.04355 2.401328 1.79667-.916743 2.98708 2.409552-1.87575 2.409411 1.80507-.916744-2.96019 2.401335-1.8671-2.969176.04355-.924826-2.96008zm0 17.35997-.924961 2.9872-2.969176.04355 2.401328 1.79667-.916743 2.98708 2.409552-1.87575 2.409411 1.80507-.916744-2.96019 2.401335-1.8671-2.969176.04355-.924826-2.96008zm19.387807-40.0453141-.924961 2.9872-2.969175.04355 2.401327 1.79667-.916742 2.987079 2.409551-1.87575 2.409411 1.80507-.916744-2.960189 2.401335-1.8671-2.969176.04355-.924826-2.96008zm.088985-18.197471-.924961 2.9872-2.969176.04355 2.401328 1.79667-.916743 2.98708 2.409552-1.87575 2.409411 1.80507-.916744-2.96019 2.401335-1.8671-2.969176.04355-.924826-2.96008zm.126569 36.51188-.924961 2.9872-2.969176.04355 2.401328 1.79667-.916743 2.98708 2.409552-1.87575 2.409411 1.80507-.916744-2.96019 2.401335-1.8671-2.969176.04355-.924826-2.96008zm-.215554 17.79178-.924961 2.9872-2.969176.04355 2.401328 1.79667-.916743 2.98708 2.409552-1.87575 2.409411 1.80507-.916744-2.96019 2.401335-1.8671-2.969176.04355-.924826-2.96008z" transform="matrix(1.02742 0 0 1.00209 -13.121047 -.9769377)"/>
  <path fill="url(#b)" d="M248.35974 206.96001c-80.24012-42.45169-160.480231 51.37712-240.7195788 8.92543V49.039546C87.879509 91.490468 168.11962-2.3375794 248.35974 40.114878V206.96001z" transform="translate(-.6918437 .00005735)"/>
</svg>