<?xml version="1.0" encoding="UTF-8" standalone="no"?>
<svg xmlns="http://www.w3.org/2000/svg" xmlns:xlink="http://www.w3.org/1999/xlink" xml:space="preserve" width="64" height="64" version="1.0" viewBox="0 0 256 256">
  <defs>
    <linearGradient id="a" x1="87.396973" x2="240.94727" y1="141.97266" y2="141.97266" gradientTransform="translate(-129.3706 -94.56783) scale(1.56769)" gradientUnits="userSpaceOnUse">
      <stop offset="0" stop-color="#fff" stop-opacity=".66666675"/>
      <stop offset=".24074516" stop-color="#d7d7d7" stop-opacity=".21875"/>
      <stop offset=".4585622" stop-color="#4d4d4d" stop-opacity="0"/>
      <stop offset=".71891773" stop-color="#fff" stop-opacity=".51041669"/>
      <stop offset=".87351298" stop-color="#f2f2f2" stop-opacity=".40000001"/>
      <stop offset="1" stop-color="#fff" stop-opacity=".62352943"/>
    </linearGradient>
    <linearGradient xlink:href="#a" id="b" x1="87.396973" x2="240.9473" y1="141.97266" y2="141.97276" gradientTransform="translate(-129.36996 -94.569381) scale(1.56769)" gradientUnits="userSpaceOnUse"/>
  </defs>
  <path fill="#616161" d="M248.36051 32.474164C167.27225-10.427626 86.183993 85.849941 5.094966 40.006433c-2.8138849-1.587593-5.09499904-.792266-5.09499904 2.024681V213.97202c0 2.81082 2.28111414 6.57543 5.09499904 8.16149 81.937164 46.32347 163.873574-52.46257 245.809964-6.13911 2.81389 1.58607 5.095.79457 5.095-2.02238V42.031114c0-2.810823-2.28111-6.578489-5.095-8.165318-.84813-.479187-1.69629-.943065-2.54442-1.391632z"/>
  <path fill="#fff" d="M7.6393871 218.41187c0-1.85322 14.8915599 10.2053 37.3092399 11.05498 22.41616 2.35154 52.35541-6.50577 82.452343-15.42661 30.09692-8.89941 60.34848-17.88991 83.38849-15.5598 23.04003.8535 38.86774 13.02761 40.11547 12.39916V38.939455c-1.23471.80068-16.90627-11.48059-39.79702-12.3961-22.89-2.399-52.99917 6.5693-83.10835 15.50698-30.109173 8.93003-60.216823 17.857-83.107573 15.4381-22.89075-.93236-38.5615599-13.21057-39.7970199-12.40988V217.02023c1.27375.72261 2.54442 1.3924 2.54442 1.39164z"/>
  <path fill="#fff" d="M248.35974 206.96001c-80.24012-42.45169-160.480231 51.37712-240.7195788 8.92543V49.039546C87.879509 91.490468 168.11962-2.3375794 248.35974 40.114878V206.96001z"/>
  <path fill="none" d="M0 256V0h256v256"/>
  <path fill="#bf1932" d="M76.50078801 141.79904795a45.05973035 58.8588346 41.18464448 1 1 102.99831487-27.5982085A45.05973035 58.8588346 41.18464448 1 1 76.500788 141.79904795z"/>
  <path fill="url(#b)" d="M248.36118 206.96026c-80.24012-42.45169-160.48024 51.37712-240.71958 8.92543V49.039793c80.23934 42.45092 160.47946-51.3771312 240.71958-8.92467V206.96026z"/>
</svg>