<?xml version="1.0" encoding="UTF-8" standalone="no"?>
<!-- Created with Inkscape (http://www.inkscape.org/) -->

<svg
   xmlns:a="http://ns.adobe.com/AdobeSVGViewerExtensions/3.0/"
   xmlns:dc="http://purl.org/dc/elements/1.1/"
   xmlns:cc="http://creativecommons.org/ns#"
   xmlns:rdf="http://www.w3.org/1999/02/22-rdf-syntax-ns#"
   xmlns:svg="http://www.w3.org/2000/svg"
   xmlns="http://www.w3.org/2000/svg"
   xmlns:xlink="http://www.w3.org/1999/xlink"
   xmlns:sodipodi="http://sodipodi.sourceforge.net/DTD/sodipodi-0.dtd"
   xmlns:inkscape="http://www.inkscape.org/namespaces/inkscape"
   version="1.0"
   width="48pt"
   height="48pt"
   viewBox="0 0 256 256"
   id="svg2"
   xml:space="preserve"
   sodipodi:version="0.32"
   inkscape:version="0.48.2 r9819"
   sodipodi:docname="Nuvola_Palestinian_flag.svg"
   inkscape:output_extension="org.inkscape.output.svg.inkscape"><metadata
   id="metadata45"><rdf:RDF><cc:Work
       rdf:about=""><dc:format>image/svg+xml</dc:format><dc:type
         rdf:resource="http://purl.org/dc/dcmitype/StillImage" /><dc:title></dc:title></cc:Work></rdf:RDF></metadata><sodipodi:namedview
   inkscape:window-height="705"
   inkscape:window-width="1366"
   inkscape:pageshadow="2"
   inkscape:pageopacity="0.0"
   guidetolerance="10.0"
   gridtolerance="10.0"
   objecttolerance="10.0"
   borderopacity="1.0"
   bordercolor="#666666"
   pagecolor="#ffffff"
   id="base"
   inkscape:zoom="6.7253785"
   inkscape:cx="55.14814"
   inkscape:cy="23.52094"
   inkscape:window-x="-4"
   inkscape:window-y="-4"
   inkscape:current-layer="svg2"
   showgrid="false"
   inkscape:window-maximized="1" /><defs
   id="defs271"><inkscape:perspective
   sodipodi:type="inkscape:persp3d"
   inkscape:vp_x="0 : 30 : 1"
   inkscape:vp_y="0 : 1000 : 0"
   inkscape:vp_z="60 : 30 : 1"
   inkscape:persp3d-origin="30 : 20 : 1"
   id="perspective2495" /><linearGradient
   x1="87.396973"
   y1="141.97266"
   x2="240.94727"
   y2="141.97266"
   id="XMLID_22_"
   gradientUnits="userSpaceOnUse"
   gradientTransform="matrix(1.567692,0,0,1.567692,-129.3706,-94.56783)">
								<stop
   style="stop-color:#ffffff;stop-opacity:0.66666675"
   offset="0"
   id="stop139" />
								
								<stop
   style="stop-color:#d7d7d7;stop-opacity:0.21875"
   offset="0.24074516"
   id="stop143" />
								<stop
   style="stop-color:#4d4d4d;stop-opacity:0"
   offset="0.4585622"
   id="stop145" /><stop
   style="stop-color:#ffffff;stop-opacity:0.51041669"
   offset="0.71891773"
   id="stop3696" /><stop
   style="stop-color:#f2f2f2;stop-opacity:0.40000001"
   offset="0.87351298"
   id="stop2807" /><stop
   style="stop-color:#ffffff;stop-opacity:0.62352943"
   offset="1"
   id="stop3694" />
								
								
								<a:midPointStop
   style="stop-color:#E9E9EF"
   offset="0" />
								<a:midPointStop
   style="stop-color:#E9E9EF"
   offset="0.5" />
								<a:midPointStop
   style="stop-color:#B1B1C5"
   offset="0.157303" />
								<a:midPointStop
   style="stop-color:#B1B1C5"
   offset="0.5" />
								<a:midPointStop
   style="stop-color:#CECEDB"
   offset="0.314607" />
								<a:midPointStop
   style="stop-color:#CECEDB"
   offset="0.5" />
								<a:midPointStop
   style="stop-color:#FFFFFF"
   offset="0.65" />
								<a:midPointStop
   style="stop-color:#FFFFFF"
   offset="0.5" />
								<a:midPointStop
   style="stop-color:#CECEDB"
   offset="0.837079" />
								<a:midPointStop
   style="stop-color:#CECEDB"
   offset="0.5" />
								<a:midPointStop
   style="stop-color:#FFFF66"
   offset="1" />
							</linearGradient><linearGradient
   x1="87.396973"
   y1="141.97266"
   x2="269.33331"
   y2="141.97276"
   id="linearGradient1945"
   xlink:href="#XMLID_22_"
   gradientUnits="userSpaceOnUse"
   gradientTransform="matrix(1.567692,0,0,1.567692,-129.3714,-94.56962)" /><linearGradient
   gradientTransform="matrix(1.567692,0,0,1.567692,-69.82581,15.22741)"
   gradientUnits="userSpaceOnUse"
   id="XMLID_17_"
   y2="112.30453"
   x2="126.18921"
   y1="39.617504"
   x1="126.18921">
								<stop
   id="stop18"
   offset="0"
   style="stop-color:#000000;stop-opacity:1;" />
								<stop
   id="stop20"
   offset="0.19460699"
   style="stop-color:#000000;stop-opacity:1;" />
								<stop
   id="stop22"
   offset="0.31460699"
   style="stop-color:#ffffff;stop-opacity:1;" />
								<stop
   id="stop24"
   offset="0.72999996"
   style="stop-color:#ffffff;stop-opacity:1;" />
								<stop
   id="stop26"
   offset="0.85707897"
   style="stop-color:#007a3d;stop-opacity:1;" />
								<stop
   id="stop28"
   offset="1"
   style="stop-color:#007a3d;stop-opacity:1;" />
								<a:midPointStop
   offset="0"
   style="stop-color:#CF0000" />
								<a:midPointStop
   offset="0.5"
   style="stop-color:#CF0000" />
								<a:midPointStop
   offset="0.157303"
   style="stop-color:#7C0000" />
								<a:midPointStop
   offset="0.5"
   style="stop-color:#7C0000" />
								<a:midPointStop
   offset="0.314607"
   style="stop-color:#CF0000" />
								<a:midPointStop
   offset="0.5"
   style="stop-color:#CF0000" />
								<a:midPointStop
   offset="0.65"
   style="stop-color:#B80000" />
								<a:midPointStop
   offset="0.5"
   style="stop-color:#B80000" />
								<a:midPointStop
   offset="0.837079"
   style="stop-color:#CF0000" />
								<a:midPointStop
   offset="0.5"
   style="stop-color:#CF0000" />
								<a:midPointStop
   offset="1"
   style="stop-color:#FF0000" />
							</linearGradient><linearGradient
   inkscape:collect="always"
   xlink:href="#XMLID_22_"
   id="linearGradient3188"
   gradientUnits="userSpaceOnUse"
   gradientTransform="matrix(1.567692,0,0,1.567692,-129.3714,-94.56962)"
   x1="87.396973"
   y1="141.97266"
   x2="269.33331"
   y2="141.97276" /><linearGradient
   inkscape:collect="always"
   xlink:href="#XMLID_17_"
   id="linearGradient7085"
   x1="133.17909"
   y1="151.1393"
   x2="132.62358"
   y2="123.21392"
   gradientUnits="userSpaceOnUse" />
<linearGradient
   inkscape:collect="always"
   xlink:href="#XMLID_17_"
   id="linearGradient2192"
   gradientUnits="userSpaceOnUse"
   x1="133.17909"
   y1="151.1393"
   x2="132.62358"
   y2="123.21392" /><linearGradient
   inkscape:collect="always"
   xlink:href="#XMLID_17_"
   id="linearGradient2199"
   gradientUnits="userSpaceOnUse"
   x1="110.79613"
   y1="74.262764"
   x2="115.41695"
   y2="180.35185"
   gradientTransform="translate(0.2133333,0)" /></defs>
	
		
	



<path
   id="path15"
   style="fill:#4d4d4d"
   d="M 248.36055,32.472022 C 167.27229,-10.429768 86.183274,85.849332 5.0950169,40.005058 C 2.2811336,38.417463 1.7853684e-05,39.212792 1.7853684e-05,42.029738 C 1.7853684e-05,99.343119 1.7853684e-05,156.65726 1.7853684e-05,213.97064 C 1.7853684e-05,216.78146 2.2811336,220.54913 5.0950169,222.13519 C 87.031416,268.46019 168.96859,169.6711 250.90499,215.99533 C 253.71887,217.58215 255.99999,216.78759 255.99999,213.97064 C 255.99999,156.65726 255.99999,99.343119 255.99999,42.029738 C 255.99999,39.218915 253.71887,35.452015 250.90499,33.864421 C 250.05685,33.385234 249.2087,32.921355 248.36055,32.472022 z " /><path
   id="path30"
   style="fill:url(#linearGradient2199);fill-opacity:1"
   d="M 248.57388,37.567021 C 248.57388,39.421 233.68234,27.361714 211.26466,26.512802 C 188.84849,24.161264 158.90925,33.018571 128.81232,41.939411 C 98.715395,50.838819 68.463833,59.830085 45.423814,57.499214 C 22.383792,56.646475 6.5560746,44.472367 5.3083502,45.100057 C 5.3083502,49.976129 5.3083502,212.16336 5.3083502,217.04096 C 6.5430612,216.23874 22.215388,228.52232 45.106141,229.4363 C 67.996128,231.83529 98.105311,222.86699 128.21371,213.92855 C 158.3229,204.99929 188.43207,196.07231 211.3213,198.49122 C 234.21205,199.42357 249.88437,211.70178 251.11832,210.90033 C 251.11832,206.02272 251.11832,43.835492 251.11832,38.95942 C 249.84457,38.236811 248.57388,37.567021 248.57388,37.567021 z" /><polyline
   style="fill:none"
   points="0,256 0,0 256,0 256,256 "
   id="polyline3117" /><path
   id="path5190"
   style="fill:#007a3d;fill-opacity:1"
   d="M 248.35964,206.93022 C 168.11952,164.47777 87.88094,258.30582 7.6416,215.85719 C 7.6416,160.24164 7.6416,104.62608 7.6416,49.011311 C 87.88094,91.460711 168.12106,-2.3681051 248.35964,40.084351 C 248.35964,95.699911 248.35964,151.31544 248.35964,206.93022 z " /><path
   id="path9462"
   style="fill:#ffffff;fill-opacity:1"
   d="M 203.20002,86.13334 C 138.00532,85.371177 72.794472,141.35379 7.6000006,106.53334 C 7.6000006,112.05042 7.6000006,117.5496 7.6000006,123.06668 C 7.6000006,131.9207 7.6000006,140.74599 7.6000006,149.60001 C 7.6000006,154.6631 7.6000006,159.73692 7.6000006,164.80001 C 87.83935,206.25421 168.16144,114.67541 248.40002,156.13335 C 248.40002,150.98143 248.40002,145.81859 248.40002,140.66668 C 248.40002,131.92871 248.40002,123.13799 248.40002,114.40001 C 248.40002,108.76689 248.40002,103.09979 248.40002,97.466674 C 233.355,89.430603 218.24495,86.309225 203.20002,86.13334 z " /><path
   id="path9466"
   style="fill:#000000;fill-opacity:1"
   d="M 203.20002,28.800002 C 138.00532,28.05953 72.794472,82.496143 7.6000006,48.66667 C 7.6000006,54.579917 7.6000006,60.486546 7.6000006,66.400005 C 7.6000006,74.447643 7.6000006,82.485557 7.6000006,90.53334 C 7.6000006,96.134809 7.6000006,101.73182 7.6000006,107.33334 C 87.83935,148.03559 168.16144,58.094835 248.40002,98.800008 C 248.40002,93.109878 248.40002,87.42367 248.40002,81.73334 C 248.40002,73.774913 248.40002,65.825452 248.40002,57.866671 C 248.40002,51.864239 248.40002,45.869158 248.40002,39.86667 C 233.355,32.059305 218.24495,28.970881 203.20002,28.800002 z " /><path
   id="path45"
   style="fill:#ce1126;fill-opacity:1"
   d="M 83.651692,144.54748 C 65.494294,171.59676 30.388661,203.4436 5.3995282,217.20412 C 5.3995282,161.58857 5.3995282,100.81414 5.3995282,45.199377 C 23.550581,83.745166 48.310573,118.4775 83.651692,144.54748 z"
   sodipodi:nodetypes="cccc" /><g
   style="display:inline"
   id="layer1"><path
     d="M 248.35974,206.96001 C 168.11962,164.50832 87.879509,258.33713 7.6401612,215.88544 C 7.6401612,160.27066 7.6401612,104.65509 7.6401612,49.039546 C 87.879509,91.490468 168.11962,-2.3375794 248.35974,40.114878 C 248.35974,95.729664 248.35974,151.34523 248.35974,206.96001 z"
     style="fill:url(#linearGradient3188)"
     id="path3186" /></g></svg>